<svg width="35" height="35" viewBox="0 0 35 35" fill="none" xmlns="http://www.w3.org/2000/svg">
<path d="M27.218 9.39209C27.218 9.39209 27.2169 9.39209 27.218 9.39209C27.2607 9.47193 27.2902 9.55834 27.2902 9.65459C27.2902 9.96521 27.0386 10.2179 26.7258 10.2179C26.5464 10.2179 26.3933 10.1271 26.2905 9.99584C26.2347 10.1216 26.2019 10.2605 26.2019 10.4071C26.2019 10.9682 26.6569 11.4221 27.2169 11.4221C27.778 11.4221 28.233 10.9682 28.233 10.4071C28.2319 9.84709 27.7769 9.39209 27.218 9.39209Z" fill="white"/>
<path d="M31.232 9.74428C30.2772 6.7649 27.4848 4.60693 24.1894 4.60693C20.4105 4.60693 17.2987 7.44303 16.8525 11.1027L16.8503 11.1049C13.79 16.2466 2.05297 13.5243 0 12.4043C3.57984 20.4062 8.70078 24.3163 13.7134 25.3893C15.4131 26.2916 17.3458 26.8133 19.4053 26.8133C19.623 26.8133 19.8373 26.7915 20.0506 26.7816L19.0312 28.5108L16.8766 29.2174L17.0505 29.7501L19.1395 29.0665L20.1228 30.076L20.5242 29.6866L19.5672 28.7055L20.7266 26.7412C21.5228 26.6547 22.2983 26.4929 23.0387 26.2621L25.2492 29.0872L23.3756 29.784L23.5703 30.3079L25.6955 29.5182L27.6522 30.3943L27.8808 29.8835L25.8836 28.9899L23.5911 26.0608C28.2264 24.3612 31.5437 19.9369 31.5831 14.7252C31.6411 14.548 31.6947 14.3774 31.7373 14.221C31.8205 13.929 35 10.7593 35 10.7593L31.232 9.74428ZM18.3805 23.5835C15.9119 23.5835 10.0056 19.8582 10.0056 18.9908C10.0056 18.1213 15.9119 14.6497 18.3805 14.6497C20.848 14.6497 22.8473 16.6502 22.8473 19.1166C22.8473 21.583 20.848 23.5835 18.3805 23.5835ZM27.078 12.4382C25.958 12.4382 25.048 11.5293 25.048 10.4071C25.048 9.286 25.958 8.37818 27.078 8.37818C28.1991 8.37818 29.108 9.28709 29.108 10.4071C29.108 11.5293 28.1991 12.4382 27.078 12.4382Z" fill="white"/>
</svg>
