<svg width="50" height="50" viewBox="0 0 50 50" fill="none" xmlns="http://www.w3.org/2000/svg">
<path d="M36.1731 1H13.5887C6.66702 1 1 6.79247 1 13.8605V35.9221C1 42.9902 6.66702 48.7826 13.5887 48.7826H36.1731C43.0947 48.7826 48.7617 42.9902 48.7617 35.9221V13.8605C48.7617 6.79247 43.0947 1 36.1731 1Z" fill="#100F10" stroke="#E84E8B" stroke-miterlimit="10"/>
<path d="M36.5286 19.9668C36.2149 19.214 35.8176 18.503 35.3575 17.8129C34.8975 17.1438 34.3956 16.5164 33.8101 15.9518C33.2455 15.3872 32.6181 14.8644 31.9281 14.4044C31.2589 13.9443 30.527 13.547 29.7742 13.2333C29.0005 12.9197 28.2058 12.6687 27.3903 12.5014C26.5538 12.3341 25.6964 12.2505 24.8391 12.2505C23.9817 12.2505 23.1243 12.3341 22.2879 12.5014C21.4723 12.6687 20.6777 12.9197 19.904 13.2333C19.1512 13.547 18.4402 13.9443 17.7501 14.4044C17.081 14.8644 16.4536 15.3663 15.8681 15.9518C15.3035 16.5164 14.7807 17.1438 14.3206 17.8129C13.8606 18.4821 13.4633 19.214 13.1496 19.9668C12.815 20.7405 12.585 21.5352 12.4177 22.3507C12.2504 23.1872 12.1667 24.0445 12.1667 24.9019C12.1667 25.7593 12.2504 26.6166 12.4177 27.4531C12.585 28.2687 12.8359 29.0633 13.1496 29.837C13.4633 30.5898 13.8606 31.3217 14.3206 31.9909C14.7807 32.6601 15.2826 33.2874 15.8681 33.852C16.4327 34.4166 17.06 34.9394 17.7501 35.3995C18.4193 35.8595 19.1512 36.2568 19.904 36.5705C20.6777 36.9051 21.4723 37.1351 22.2879 37.3024C23.1243 37.4697 23.9817 37.5533 24.8391 37.5533C25.6964 37.5533 26.5538 37.4697 27.3903 37.3024C28.2058 37.1351 29.0005 36.8842 29.7742 36.5705C30.527 36.2568 31.238 35.8595 31.9281 35.3995C32.5972 34.9394 33.2246 34.4375 33.8101 33.852C34.3747 33.2874 34.8975 32.6601 35.3575 31.9909C35.8176 31.3217 36.2149 30.5898 36.5286 29.837C36.8422 29.0842 37.0932 28.2687 37.2605 27.4531C37.4278 26.6166 37.5114 25.7593 37.5114 24.9019C37.5114 24.0445 37.4278 23.1872 37.2605 22.3507C37.1141 21.5352 36.8632 20.7405 36.5286 19.9668ZM24.8809 14.0907C27.6203 14.0907 30.1088 15.1154 32.0117 16.7883C31.9908 16.8301 30.4434 19.1722 26.3656 20.6987C24.5254 17.3111 22.497 14.6135 22.3297 14.4044C23.1452 14.1952 24.0026 14.0907 24.8809 14.0907ZM22.2879 14.4044C22.2879 14.4044 22.267 14.4044 22.2461 14.4044C22.267 14.4044 22.2879 14.4044 22.2879 14.4044ZM20.2804 15.1154C20.4268 15.3036 22.4134 18.022 24.2954 21.347C19.1093 22.7271 14.6134 22.6644 14.3206 22.6644C15.0107 19.3186 17.2482 16.5373 20.2804 15.1154ZM16.8509 32.1164C15.1362 30.1925 14.0906 27.6622 14.0906 24.9019C14.0906 24.7974 14.0906 24.6719 14.0906 24.5673C14.2788 24.5673 19.6112 24.6928 25.1737 23.0199C25.4873 23.6263 25.7801 24.2327 26.0519 24.8601C25.9056 24.9019 25.7592 24.9437 25.6337 24.9856C19.7994 26.8676 16.83 32.1164 16.8509 32.1164C16.8509 32.1164 16.83 32.1164 16.8509 32.1164ZM24.8809 35.6922C22.3297 35.6922 19.9876 34.8139 18.1265 33.3292C18.0847 33.3083 18.0429 33.2665 17.9801 33.2247C18.0429 33.2665 18.0847 33.3083 18.1265 33.3292C18.1892 33.371 18.2311 33.4129 18.2311 33.4129C18.2311 33.4129 20.3013 28.896 26.7002 26.6585C26.7211 26.6585 26.742 26.6376 26.7629 26.6376C28.2895 30.5898 28.9168 33.8938 29.0632 34.8348C27.8085 35.3994 26.3865 35.6922 24.8809 35.6922ZM30.9243 33.852C30.8198 33.2037 30.2342 30.0252 28.8122 26.1357C32.3045 25.5711 35.3157 26.533 35.5457 26.6166C35.0648 29.6279 33.3501 32.2209 30.9243 33.852ZM28.164 24.4419C28.0804 24.2537 28.0176 24.0655 27.934 23.8773C27.704 23.3545 27.4739 22.8317 27.223 22.3089C31.4889 20.5732 33.2246 18.0639 33.2455 18.043C34.7511 19.8832 35.6712 22.2252 35.713 24.7974C35.5248 24.7555 31.8653 23.9609 28.164 24.4419Z" fill="white"/>
</svg>
