<svg width="50" height="50" viewBox="0 0 50 50" fill="none" xmlns="http://www.w3.org/2000/svg">
<path d="M36.173 1H13.5887C6.667 1 1 6.79247 1 13.8605V35.9221C1 42.9902 6.667 48.7826 13.5887 48.7826H36.173C43.0947 48.7826 48.7617 42.9902 48.7617 35.9221V13.8605C48.7617 6.79247 43.0947 1 36.173 1Z" fill="#100F10" stroke="#4469B0" stroke-miterlimit="10"/>
<path d="M27.5993 16.7461H31.217V11.3091H27.0556C21.1586 11.3091 21.2841 16.0769 21.2841 16.7879V20.3637H18.5447V25.8007H21.2841C21.2841 31.7605 21.2841 38.473 21.2841 38.473H26.7001C26.7001 38.473 26.7001 31.635 26.7001 25.8007H30.3178L31.217 20.3637H26.7001V17.6452C26.7001 17.0597 27.0347 16.7461 27.5993 16.7461Z" fill="white"/>
</svg>
