<svg width="50" height="50" viewBox="0 0 50 50" fill="none" xmlns="http://www.w3.org/2000/svg">
<path d="M0.761719 13.6093V36.1936C0.761719 43.1153 6.55419 48.7823 13.6223 48.7823H35.6629C42.731 48.7823 48.5234 43.1153 48.5234 36.1936V13.6093C48.5234 6.68757 42.731 1.02057 35.6629 1.02057H13.6223C6.53328 0.999654 0.761719 6.66666 0.761719 13.6093Z" fill="#100F10" stroke="url(#paint0_linear)" stroke-miterlimit="10"/>
<path d="M31.2924 10.8281H17.9927C13.915 10.8281 10.5901 14.2367 10.5901 18.3981V31.3841C10.5901 35.5454 13.9359 38.954 17.9927 38.954H31.2924C35.3701 38.954 38.6951 35.5454 38.6951 31.3841V18.3981C38.6951 14.2367 35.3701 10.8281 31.2924 10.8281ZM36.1857 31.1959C36.1857 34.0816 33.8854 36.4446 31.0624 36.4446H18.2437C15.4206 36.4446 13.1204 34.0816 13.1204 31.1959V18.5863C13.1204 15.7005 15.4206 13.3375 18.2437 13.3375H31.0624C33.8854 13.3375 36.1857 15.7005 36.1857 18.5863V31.1959Z" fill="white"/>
<path d="M24.6425 17.666C20.7321 17.666 17.5745 20.9073 17.5745 24.8805C17.5745 28.8745 20.7321 32.0949 24.6425 32.0949C28.553 32.0949 31.7106 28.8536 31.7106 24.8805C31.7106 20.9073 28.553 17.666 24.6425 17.666ZM24.6425 29.5646C22.1332 29.5646 20.0838 27.4735 20.0838 24.9014C20.0838 22.3293 22.1332 20.2381 24.6425 20.2381C27.1519 20.2381 29.2012 22.3293 29.2012 24.9014C29.2012 27.4735 27.1519 29.5646 24.6425 29.5646Z" fill="white"/>
<path d="M32.0871 18.9209C32.9648 18.9209 33.6763 18.1906 33.6763 17.2898C33.6763 16.389 32.9648 15.6587 32.0871 15.6587C31.2093 15.6587 30.4978 16.389 30.4978 17.2898C30.4978 18.1906 31.2093 18.9209 32.0871 18.9209Z" fill="white"/>
<defs>
<linearGradient id="paint0_linear" x1="45.1611" y1="45.414" x2="4.12269" y2="4.37561" gradientUnits="userSpaceOnUse">
<stop stop-color="#FEC053"/>
<stop offset="0.3273" stop-color="#F2203E"/>
<stop offset="0.6485" stop-color="#B729A8"/>
<stop offset="1" stop-color="#5342D6"/>
</linearGradient>
</defs>
</svg>
