<svg width="28" height="16" viewBox="0 0 28 16" fill="none" xmlns="http://www.w3.org/2000/svg">
<path d="M0.65 7.95C0.65 6.95 0.866667 6.01667 1.3 5.15C1.76667 4.25 2.35 3.46667 3.05 2.8C3.78333 2.1 4.61667 1.56667 5.55 1.2C6.48333 0.799999 7.43333 0.599999 8.4 0.599999C9.8 0.599999 10.8167 0.799999 11.45 1.2C12.0833 1.6 12.6333 2.05 13.1 2.55C13.3 2.71667 13.4833 2.9 13.65 3.1C13.85 3.26667 14.0333 3.41667 14.2 3.55C14.4 3.38333 14.5833 3.21667 14.75 3.05C14.95 2.88333 15.1333 2.71667 15.3 2.55C15.8 2.08333 16.3667 1.65 17 1.25C17.6667 0.816666 18.6333 0.599999 19.9 0.599999C20.9 0.599999 21.85 0.799999 22.75 1.2C23.6833 1.56667 24.5167 2.1 25.25 2.8C25.9833 3.46667 26.5667 4.25 27 5.15C27.4333 6.01667 27.65 6.95 27.65 7.95C27.65 8.95 27.4333 9.9 27 10.8C26.5667 11.6667 25.9833 12.45 25.25 13.15C24.5167 13.8167 23.6833 14.35 22.75 14.75C21.85 15.1167 20.9 15.3 19.9 15.3C18.5667 15.3 17.5833 15.1 16.95 14.7C16.3167 14.3 15.75 13.85 15.25 13.35L14.2 12.3C14.0333 12.4667 13.8333 12.65 13.6 12.85C13.4 13.05 13.2333 13.2167 13.1 13.35C12.8667 13.5833 12.6167 13.8333 12.35 14.1C12.1167 14.3333 11.8167 14.5333 11.45 14.7C11.1167 14.8667 10.7 15.0167 10.2 15.15C9.73333 15.25 9.13333 15.3 8.4 15.3C7.43333 15.3 6.48333 15.1167 5.55 14.75C4.61667 14.35 3.78333 13.8167 3.05 13.15C2.35 12.45 1.76667 11.6667 1.3 10.8C0.866667 9.9 0.65 8.95 0.65 7.95ZM16.05 7.95C16.05 9.01667 16.4167 9.91667 17.15 10.65C17.8833 11.35 18.7833 11.7 19.85 11.7C20.9167 11.7 21.8167 11.35 22.55 10.65C23.3167 9.91667 23.7 9.01667 23.7 7.95C23.7 6.91667 23.3167 6.03333 22.55 5.3C21.8167 4.56667 20.9167 4.2 19.85 4.2C18.7833 4.2 17.8833 4.56667 17.15 5.3C16.4167 6.03333 16.05 6.91667 16.05 7.95ZM4.65 7.95C4.65 9.01667 5.01667 9.91667 5.75 10.65C6.48333 11.35 7.38333 11.7 8.45 11.7C9.51667 11.7 10.4167 11.35 11.15 10.65C11.9167 9.91667 12.3 9.01667 12.3 7.95C12.3 6.91667 11.9167 6.03333 11.15 5.3C10.4167 4.56667 9.51667 4.2 8.45 4.2C7.38333 4.2 6.48333 4.56667 5.75 5.3C5.01667 6.03333 4.65 6.91667 4.65 7.95Z" fill="white"/>
</svg>
